<?xml version="1.0" encoding="UTF-8" standalone="no"?>
<!-- Generator: Adobe Illustrator 19.0.0, SVG Export Plug-In . SVG Version: 6.00 Build 0)  -->

<svg
   xmlns:dc="http://purl.org/dc/elements/1.1/"
   xmlns:cc="http://creativecommons.org/ns#"
   xmlns:rdf="http://www.w3.org/1999/02/22-rdf-syntax-ns#"
   xmlns:svg="http://www.w3.org/2000/svg"
   xmlns="http://www.w3.org/2000/svg"
   xmlns:sodipodi="http://sodipodi.sourceforge.net/DTD/sodipodi-0.dtd"
   xmlns:inkscape="http://www.inkscape.org/namespaces/inkscape"
   version="1.1"
   id="Capa_1"
   x="0px"
   y="0px"
   viewBox="0 0 275.334 275.334"
   style="enable-background:new 0 0 275.334 275.334;"
   xml:space="preserve"
   inkscape:version="0.91 r13725"
   sodipodi:docname="aim.svg"><metadata
   id="metadata4235"><rdf:RDF><cc:Work
       rdf:about=""><dc:format>image/svg+xml</dc:format><dc:type
         rdf:resource="http://purl.org/dc/dcmitype/StillImage" /></cc:Work></rdf:RDF></metadata><defs
   id="defs4233" /><sodipodi:namedview
   pagecolor="#ffffff"
   bordercolor="#666666"
   borderopacity="1"
   objecttolerance="10"
   gridtolerance="10"
   guidetolerance="10"
   inkscape:pageopacity="0"
   inkscape:pageshadow="2"
   inkscape:window-width="1280"
   inkscape:window-height="738"
   id="namedview4231"
   showgrid="false"
   inkscape:zoom="0.85714074"
   inkscape:cx="137.66701"
   inkscape:cy="137.66701"
   inkscape:window-x="-8"
   inkscape:window-y="-8"
   inkscape:window-maximized="1"
   inkscape:current-layer="Capa_1" />
<g
   id="g4195"
   style="fill:#241c1c">
	<path
   d="M137.667,168.021c16.737,0,30.354-13.617,30.354-30.354s-13.617-30.354-30.354-30.354s-30.354,13.617-30.354,30.354   S120.93,168.021,137.667,168.021z M137.667,119.313c10.121,0,18.354,8.233,18.354,18.354s-8.233,18.354-18.354,18.354   s-18.354-8.233-18.354-18.354S127.546,119.313,137.667,119.313z"
   id="path4197"
   style="fill:#241c1c" />
	<path
   d="M269.334,131.667h-23.775c-3.015-54.818-47.074-98.877-101.892-101.892V6c0-3.313-2.687-6-6-6s-6,2.687-6,6v29.605   c0,3.313,2.687,6,6,6c52.969,0,96.062,43.093,96.062,96.062s-43.093,96.062-96.062,96.062s-96.062-43.093-96.062-96.062   c0-36.783,21.452-70.817,54.651-86.704c2.989-1.431,4.253-5.013,2.822-8.002c-1.43-2.988-5.015-4.252-8.002-2.822   c-18.131,8.676-33.473,22.217-44.366,39.158c-10.11,15.724-15.897,33.718-16.924,52.37H6c-3.313,0-6,2.687-6,6s2.687,6,6,6h23.775   c3.015,54.818,47.074,98.877,101.892,101.892v23.775c0,3.313,2.687,6,6,6s6-2.687,6-6v-23.775   c54.818-3.015,98.877-47.074,101.892-101.892h23.775c3.313,0,6-2.687,6-6S272.647,131.667,269.334,131.667z"
   id="path4199"
   style="fill:#241c1c" />
</g>
<g
   id="g4201">
</g>
<g
   id="g4203">
</g>
<g
   id="g4205">
</g>
<g
   id="g4207">
</g>
<g
   id="g4209">
</g>
<g
   id="g4211">
</g>
<g
   id="g4213">
</g>
<g
   id="g4215">
</g>
<g
   id="g4217">
</g>
<g
   id="g4219">
</g>
<g
   id="g4221">
</g>
<g
   id="g4223">
</g>
<g
   id="g4225">
</g>
<g
   id="g4227">
</g>
<g
   id="g4229">
</g>
</svg>