<?xml version="1.0" encoding="iso-8859-1"?>
<!-- Generator: Adobe Illustrator 18.1.1, SVG Export Plug-In . SVG Version: 6.00 Build 0)  -->
<svg xmlns="http://www.w3.org/2000/svg" xmlns:xlink="http://www.w3.org/1999/xlink" version="1.1" id="Capa_1" x="0px" y="0px" viewBox="0 0 330.423 330.423" style="enable-background:new 0 0 330.423 330.423;" xml:space="preserve" width="512px" height="512px">
<g>
	<path d="M281.009,151.614h49.414v27.195h-49.414V151.614z M151.614,280.547h27.195v49.213h-27.195V280.547z    M0,151.614h49.414v27.195H0V151.614z M151.614,0.664h27.195v49.213h-27.195V0.664z M224.628,52.384L243.42,20.13l9.399,5.477   l-18.787,32.254L224.628,52.384z M278.464,106.078l-5.439-9.415l32.379-18.7l5.439,9.415L278.464,106.078z M310.864,243.055   l-5.439,9.41l-32.379-18.699l5.439-9.415L310.864,243.055z M252.813,304.8l-9.399,5.483l-18.787-32.254l9.399-5.477L252.813,304.8z    M87.009,310.288l-9.404-5.477l18.787-32.254l9.404,5.483L87.009,310.288z M25.014,252.492l-5.439-9.41l32.379-18.7l5.439,9.415   L25.014,252.492z M19.575,87.362l5.439-9.415l32.379,18.7l-5.439,9.415L19.575,87.362z M77.615,25.618l9.399-5.477l18.787,32.254   l-9.404,5.477L77.615,25.618z" fill="#3c3b35"/>
	<path d="M262.397,165.212c0-4.509-3.66-8.159-8.159-8.159H180.55c-1.637-3.04-4.123-5.51-7.18-7.136V99.655   c0-4.509-3.655-8.159-8.159-8.159s-8.159,3.65-8.159,8.159v50.262c-5.51,2.926-9.306,8.637-9.306,15.295   c0,9.605,7.821,17.394,17.465,17.394c6.674,0,12.396-3.764,15.338-9.236h73.688C258.736,173.37,262.397,169.721,262.397,165.212z" fill="#3c3b35"/>
</g>
<g>
</g>
<g>
</g>
<g>
</g>
<g>
</g>
<g>
</g>
<g>
</g>
<g>
</g>
<g>
</g>
<g>
</g>
<g>
</g>
<g>
</g>
<g>
</g>
<g>
</g>
<g>
</g>
<g>
</g>
</svg>
