<?xml version="1.0" encoding="iso-8859-1"?>
<!-- Generator: Adobe Illustrator 19.0.0, SVG Export Plug-In . SVG Version: 6.00 Build 0)  -->
<svg xmlns="http://www.w3.org/2000/svg" xmlns:xlink="http://www.w3.org/1999/xlink" version="1.1" id="Layer_1" x="0px" y="0px" viewBox="0 0 490 490" style="enable-background:new 0 0 490 490;" xml:space="preserve" width="512px" height="512px">
<g>
	<g>
		<g>
			<path d="M410.4,374.5H233c-8.4-44.9-48.1-80.1-95.1-80.1c-47.1,0-86.9,34.5-95.2,80.1H19.2c-9.4,0-17.7,8.3-17.7,17.7     s8.3,17.7,17.7,17.7h23.4c8.3,45.6,48,80.1,95.2,80.1c48,0,86.9-35.2,95.1-80.1h177.4c9.4,0,17.7-8.3,17.7-17.7     S419.8,374.5,410.4,374.5z M157.6,409.9h39c-7.6,25-30.7,43.7-58.8,43.7c-34.3,0-61.4-28.1-61.4-61.4s28.1-61.4,61.4-61.4     c28,0,51.2,18.7,58.8,43.7h-39c-9.4,0-17.7,8.3-17.7,17.7S148.2,409.9,157.6,409.9z" fill="#262c30"/>
			<path d="M470.8,81.1h-23.3C439.6,35,399.6,0,352.2,0c-47.5,0-87.5,35-95.3,81.1H79.6c-9.4,0-17.7,8.3-17.7,17.7     c0,9.4,8.3,17.7,17.7,17.7h177.6c8.7,45.1,48.2,79.1,95,79.1s86.3-34,95-79.1h23.6c10.4,0,17.7-8.3,17.7-17.7     C488.5,89.4,480.1,81.1,470.8,81.1z M352.2,159.2c-27.8,0-50.8-17.7-58.6-42.7h38.8c9.4,0,17.7-8.3,17.7-17.7     c0-9.4-8.3-17.7-17.7-17.7h-39.2c7.5-25.5,31.4-44.7,59-44.7c33.3,0,60.3,28.1,61.4,61.4C413.5,131.1,386.5,159.2,352.2,159.2z" fill="#262c30"/>
		</g>
	</g>
</g>
<g>
</g>
<g>
</g>
<g>
</g>
<g>
</g>
<g>
</g>
<g>
</g>
<g>
</g>
<g>
</g>
<g>
</g>
<g>
</g>
<g>
</g>
<g>
</g>
<g>
</g>
<g>
</g>
<g>
</g>
</svg>
